<svg xmlns="http://www.w3.org/2000/svg" xmlns:xlink="http://www.w3.org/1999/xlink" width="500" zoomAndPan="magnify" viewBox="60 80 240 200" height="500" preserveAspectRatio="xMidYMid meet" version="1.0"><defs><clipPath id="de577ad39a"><path d="M 149 100 L 280 100 L 280 275 L 149 275 Z M 149 100 " clip-rule="nonzero"/></clipPath><clipPath id="faf1002c35"><path d="M 234.902344 88.464844 L 291.347656 121.691406 L 194.269531 286.609375 L 137.828125 253.386719 Z M 234.902344 88.464844 " clip-rule="nonzero"/></clipPath><clipPath id="60eb3925bb"><path d="M 263.125 105.078125 C 270.609375 109.484375 276.039062 116.683594 278.214844 125.089844 C 280.394531 133.5 279.140625 142.429688 274.734375 149.914062 L 210.925781 258.316406 C 206.519531 265.800781 199.320312 271.230469 190.910156 273.40625 C 182.503906 275.585938 173.574219 274.332031 166.089844 269.925781 C 158.605469 265.519531 153.175781 258.320312 151 249.914062 C 148.824219 241.507812 150.074219 232.578125 154.480469 225.09375 L 218.292969 116.6875 C 222.699219 109.203125 229.894531 103.777344 238.304688 101.597656 C 246.710938 99.421875 255.640625 100.671875 263.125 105.078125 Z M 263.125 105.078125 " clip-rule="nonzero"/></clipPath><clipPath id="a600dc70d1"><path d="M 0 0 L 131 0 L 131 175 L 0 175 Z M 0 0 " clip-rule="nonzero"/></clipPath><clipPath id="7c509588ba"><path d="M 85.902344 -11.535156 L 142.347656 21.691406 L 45.269531 186.609375 L -11.171875 153.386719 Z M 85.902344 -11.535156 " clip-rule="nonzero"/></clipPath><clipPath id="70de719f4c"><path d="M 114.125 5.078125 C 121.609375 9.484375 127.039062 16.683594 129.214844 25.089844 C 131.394531 33.5 130.140625 42.429688 125.734375 49.914062 L 61.925781 158.316406 C 57.519531 165.800781 50.320312 171.230469 41.910156 173.40625 C 33.503906 175.585938 24.574219 174.332031 17.089844 169.925781 C 9.605469 165.519531 4.175781 158.320312 2 149.914062 C -0.175781 141.507812 1.074219 132.578125 5.480469 125.09375 L 69.292969 16.6875 C 73.699219 9.203125 80.894531 3.777344 89.304688 1.597656 C 97.710938 -0.578125 106.640625 0.671875 114.125 5.078125 Z M 114.125 5.078125 " clip-rule="nonzero"/></clipPath><clipPath id="7d244afa85"><rect x="0" width="131" y="0" height="175"/></clipPath><clipPath id="3bc1c7b17f"><path d="M 83.652344 100.390625 L 151.128906 100.390625 L 151.128906 167.867188 L 83.652344 167.867188 Z M 83.652344 100.390625 " clip-rule="nonzero"/></clipPath><clipPath id="dc8bcff1fd"><path d="M 117.390625 100.390625 C 98.757812 100.390625 83.652344 115.496094 83.652344 134.128906 C 83.652344 152.761719 98.757812 167.867188 117.390625 167.867188 C 136.023438 167.867188 151.128906 152.761719 151.128906 134.128906 C 151.128906 115.496094 136.023438 100.390625 117.390625 100.390625 Z M 117.390625 100.390625 " clip-rule="nonzero"/></clipPath><clipPath id="20e07a5bfb"><path d="M 0.652344 0.390625 L 68.128906 0.390625 L 68.128906 67.867188 L 0.652344 67.867188 Z M 0.652344 0.390625 " clip-rule="nonzero"/></clipPath><clipPath id="3f59fae5b5"><path d="M 34.390625 0.390625 C 15.757812 0.390625 0.652344 15.496094 0.652344 34.128906 C 0.652344 52.761719 15.757812 67.867188 34.390625 67.867188 C 53.023438 67.867188 68.128906 52.761719 68.128906 34.128906 C 68.128906 15.496094 53.023438 0.390625 34.390625 0.390625 Z M 34.390625 0.390625 " clip-rule="nonzero"/></clipPath><clipPath id="07019cbdde"><rect x="0" width="69" y="0" height="68"/></clipPath></defs><g clip-path="url(#de577ad39a)"><g clip-path="url(#faf1002c35)"><g clip-path="url(#60eb3925bb)"><g transform="matrix(1, 0, 0, 1, 149, 100)"><g clip-path="url(#7d244afa85)"><g clip-path="url(#a600dc70d1)"><g clip-path="url(#7c509588ba)"><g clip-path="url(#70de719f4c)"><path fill="#1b17ff" d="M 85.902344 -11.535156 L 142.347656 21.691406 L 45.269531 186.609375 L -11.171875 153.386719 Z M 85.902344 -11.535156 " fill-opacity="1" fill-rule="nonzero"/></g></g></g></g></g></g></g></g><g clip-path="url(#3bc1c7b17f)"><g clip-path="url(#dc8bcff1fd)"><g transform="matrix(1, 0, 0, 1, 83, 100)"><g clip-path="url(#07019cbdde)"><g clip-path="url(#20e07a5bfb)"><g clip-path="url(#3f59fae5b5)"><path fill="#1b17ff" d="M 0.652344 0.390625 L 68.128906 0.390625 L 68.128906 67.867188 L 0.652344 67.867188 Z M 0.652344 0.390625 " fill-opacity="1" fill-rule="nonzero"/></g></g></g></g></g></g></svg>