<svg xmlns="http://www.w3.org/2000/svg" xmlns:xlink="http://www.w3.org/1999/xlink" width="500" zoomAndPan="magnify" viewBox="0 115 375 145" height="500" preserveAspectRatio="xMidYMid meet" version="1.0"><defs><g/><clipPath id="79a0c7269e"><path d="M 61 142 L 119 142 L 119 218 L 61 218 Z M 61 142 " clip-rule="nonzero"/></clipPath><clipPath id="f0ef617b8e"><path d="M 97.273438 136.515625 L 123.707031 152.074219 L 82.074219 222.808594 L 55.640625 207.246094 Z M 97.273438 136.515625 " clip-rule="nonzero"/></clipPath><clipPath id="c340491b9a"><path d="M 110.492188 144.296875 C 117.789062 148.59375 120.226562 157.992188 115.929688 165.292969 L 89.90625 209.496094 C 85.609375 216.796875 76.210938 219.230469 68.910156 214.933594 C 61.613281 210.636719 59.175781 201.238281 63.472656 193.9375 L 89.496094 149.734375 C 93.789062 142.433594 103.191406 140 110.492188 144.296875 Z M 110.492188 144.296875 " clip-rule="nonzero"/></clipPath><clipPath id="a141396599"><path d="M 0 0 L 58 0 L 58 76 L 0 76 Z M 0 0 " clip-rule="nonzero"/></clipPath><clipPath id="ce65dc97d6"><path d="M 36.273438 -5.484375 L 62.707031 10.074219 L 21.074219 80.808594 L -5.359375 65.246094 Z M 36.273438 -5.484375 " clip-rule="nonzero"/></clipPath><clipPath id="3eada8c5ec"><path d="M 49.492188 2.296875 C 56.789062 6.59375 59.226562 15.992188 54.929688 23.292969 L 28.90625 67.496094 C 24.609375 74.796875 15.210938 77.230469 7.910156 72.933594 C 0.613281 68.636719 -1.824219 59.238281 2.472656 51.9375 L 28.496094 7.734375 C 32.789062 0.433594 42.191406 -2 49.492188 2.296875 Z M 49.492188 2.296875 " clip-rule="nonzero"/></clipPath><clipPath id="37d73af61c"><rect x="0" width="58" y="0" height="76"/></clipPath><clipPath id="1f0966161f"><path d="M 41.722656 141.722656 L 72.273438 141.722656 L 72.273438 172.273438 L 41.722656 172.273438 Z M 41.722656 141.722656 " clip-rule="nonzero"/></clipPath><clipPath id="a5ec281035"><path d="M 57 141.722656 C 48.5625 141.722656 41.722656 148.5625 41.722656 156.996094 C 41.722656 165.433594 48.5625 172.273438 57 172.273438 C 65.433594 172.273438 72.273438 165.433594 72.273438 156.996094 C 72.273438 148.5625 65.433594 141.722656 57 141.722656 Z M 57 141.722656 " clip-rule="nonzero"/></clipPath><clipPath id="6a6eef4fb3"><path d="M 0.722656 0.722656 L 31.273438 0.722656 L 31.273438 31.273438 L 0.722656 31.273438 Z M 0.722656 0.722656 " clip-rule="nonzero"/></clipPath><clipPath id="9b4a1422f7"><path d="M 16 0.722656 C 7.5625 0.722656 0.722656 7.5625 0.722656 15.996094 C 0.722656 24.433594 7.5625 31.273438 16 31.273438 C 24.433594 31.273438 31.273438 24.433594 31.273438 15.996094 C 31.273438 7.5625 24.433594 0.722656 16 0.722656 Z M 16 0.722656 " clip-rule="nonzero"/></clipPath><clipPath id="aacc2367f0"><rect x="0" width="32" y="0" height="32"/></clipPath><clipPath id="f4c5b87046"><path d="M 0.359375 12 L 18 12 L 18 50 L 0.359375 50 Z M 0.359375 12 " clip-rule="nonzero"/></clipPath><clipPath id="389228c3fd"><path d="M 58 24 L 99.71875 24 L 99.71875 50 L 58 50 Z M 58 24 " clip-rule="nonzero"/></clipPath><clipPath id="3f2797c2c6"><rect x="0" width="100" y="0" height="64"/></clipPath><clipPath id="fc049f7019"><rect x="0" width="191" y="0" height="64"/></clipPath></defs><g clip-path="url(#79a0c7269e)"><g clip-path="url(#f0ef617b8e)"><g clip-path="url(#c340491b9a)"><g transform="matrix(1, 0, 0, 1, 61, 142)"><g clip-path="url(#37d73af61c)"><g clip-path="url(#a141396599)"><g clip-path="url(#ce65dc97d6)"><g clip-path="url(#3eada8c5ec)"><path fill="#1b17ff" d="M 36.273438 -5.484375 L 62.707031 10.074219 L 21.132812 80.703125 L -5.300781 65.144531 Z M 36.273438 -5.484375 " fill-opacity="1" fill-rule="nonzero"/></g></g></g></g></g></g></g></g><g clip-path="url(#1f0966161f)"><g clip-path="url(#a5ec281035)"><g transform="matrix(1, 0, 0, 1, 41, 141)"><g clip-path="url(#aacc2367f0)"><g clip-path="url(#6a6eef4fb3)"><g clip-path="url(#9b4a1422f7)"><path fill="#1b17ff" d="M 0.722656 0.722656 L 31.273438 0.722656 L 31.273438 31.273438 L 0.722656 31.273438 Z M 0.722656 0.722656 " fill-opacity="1" fill-rule="nonzero"/></g></g></g></g></g></g><g transform="matrix(1, 0, 0, 1, 135, 169)"><g clip-path="url(#3f2797c2c6)"><g clip-path="url(#f4c5b87046)"><g fill="#ffffff" fill-opacity="1"><g transform="translate(0.491084, 49.022539)"><g><path d="M 15.84375 -30.734375 C 15.53125 -30.734375 15.148438 -30.710938 14.703125 -30.671875 C 14.265625 -30.640625 13.835938 -30.507812 13.421875 -30.28125 C 13.003906 -30.050781 12.65625 -29.664062 12.375 -29.125 C 12.09375 -28.582031 11.953125 -27.800781 11.953125 -26.78125 L 11.953125 -24.203125 L 17.15625 -24.203125 L 17.15625 -19 L 11.953125 -19 L 11.953125 0 L 5.203125 0 L 5.203125 -19 L 0.46875 -19 L 0.46875 -24.203125 L 5.203125 -24.203125 L 5.203125 -26.8125 C 5.203125 -28.4375 5.375 -29.804688 5.71875 -30.921875 C 6.0625 -32.035156 6.554688 -32.9375 7.203125 -33.625 C 7.847656 -34.320312 8.613281 -34.847656 9.5 -35.203125 C 10.382812 -35.566406 11.359375 -35.816406 12.421875 -35.953125 C 13.492188 -36.085938 14.632812 -36.15625 15.84375 -36.15625 L 17.15625 -36.15625 L 17.15625 -30.734375 Z M 15.84375 -30.734375 "/></g></g></g></g><g fill="#ffffff" fill-opacity="1"><g transform="translate(16.917881, 49.022539)"><g><path d="M 3.5 0 L 3.5 -36.15625 L 10.359375 -36.15625 L 10.359375 0 Z M 3.5 0 "/></g></g></g><g fill="#ffffff" fill-opacity="1"><g transform="translate(29.720111, 49.022539)"><g><path d="M 14.78125 0.46875 C 12.851562 0.46875 11.082031 0.1875 9.46875 -0.375 C 7.863281 -0.9375 6.460938 -1.765625 5.265625 -2.859375 C 4.078125 -3.953125 3.15625 -5.273438 2.5 -6.828125 C 1.851562 -8.378906 1.53125 -10.144531 1.53125 -12.125 C 1.53125 -14.082031 1.851562 -15.835938 2.5 -17.390625 C 3.15625 -18.941406 4.070312 -20.257812 5.25 -21.34375 C 6.4375 -22.425781 7.835938 -23.253906 9.453125 -23.828125 C 11.078125 -24.398438 12.851562 -24.6875 14.78125 -24.6875 C 16.726562 -24.6875 18.515625 -24.398438 20.140625 -23.828125 C 21.765625 -23.253906 23.164062 -22.425781 24.34375 -21.34375 C 25.53125 -20.257812 26.445312 -18.941406 27.09375 -17.390625 C 27.738281 -15.835938 28.0625 -14.082031 28.0625 -12.125 C 28.0625 -10.144531 27.734375 -8.378906 27.078125 -6.828125 C 26.429688 -5.273438 25.515625 -3.953125 24.328125 -2.859375 C 23.140625 -1.765625 21.738281 -0.9375 20.125 -0.375 C 18.507812 0.1875 16.726562 0.46875 14.78125 0.46875 Z M 14.703125 -4.921875 C 16.023438 -4.921875 17.179688 -5.21875 18.171875 -5.8125 C 19.160156 -6.40625 19.929688 -7.242188 20.484375 -8.328125 C 21.046875 -9.410156 21.328125 -10.675781 21.328125 -12.125 C 21.328125 -13.5625 21.046875 -14.820312 20.484375 -15.90625 C 19.929688 -16.988281 19.160156 -17.828125 18.171875 -18.421875 C 17.179688 -19.023438 16.023438 -19.328125 14.703125 -19.328125 C 13.453125 -19.328125 12.335938 -19.023438 11.359375 -18.421875 C 10.390625 -17.828125 9.628906 -16.988281 9.078125 -15.90625 C 8.535156 -14.820312 8.265625 -13.5625 8.265625 -12.125 C 8.265625 -10.675781 8.535156 -9.410156 9.078125 -8.328125 C 9.628906 -7.242188 10.390625 -6.40625 11.359375 -5.8125 C 12.335938 -5.21875 13.453125 -4.921875 14.703125 -4.921875 Z M 14.703125 -4.921875 "/></g></g></g><g clip-path="url(#389228c3fd)"><g fill="#ffffff" fill-opacity="1"><g transform="translate(58.244488, 49.022539)"><g><path d="M 33.96875 -24.203125 L 40.984375 -24.203125 L 32.5 0.03125 L 26.21875 0.03125 L 20.625 -15.953125 L 14.96875 0.03125 L 8.59375 0.03125 L 0.28125 -24.203125 L 7.265625 -24.203125 L 12.265625 -8.453125 L 17.984375 -24.203125 L 23.1875 -24.203125 L 28.875 -8.5 Z M 33.96875 -24.203125 "/></g></g></g></g></g></g><g transform="matrix(1, 0, 0, 1, 135, 124)"><g clip-path="url(#fc049f7019)"><g fill="#ffffff" fill-opacity="1"><g transform="translate(0.491084, 48.884085)"><g><path d="M 26.265625 -12.453125 L 26.203125 -10.828125 L 8.265625 -10.828125 C 8.359375 -9.492188 8.691406 -8.382812 9.265625 -7.5 C 9.835938 -6.613281 10.578125 -5.953125 11.484375 -5.515625 C 12.390625 -5.085938 13.378906 -4.875 14.453125 -4.875 C 15.660156 -4.875 16.71875 -5.148438 17.625 -5.703125 C 18.539062 -6.265625 19.222656 -7.078125 19.671875 -8.140625 L 25.890625 -7.21875 C 25.359375 -5.59375 24.539062 -4.207031 23.4375 -3.0625 C 22.34375 -1.914062 21.035156 -1.039062 19.515625 -0.4375 C 17.992188 0.164062 16.320312 0.46875 14.5 0.46875 C 11.894531 0.46875 9.625 -0.0234375 7.6875 -1.015625 C 5.75 -2.003906 4.242188 -3.4375 3.171875 -5.3125 C 2.109375 -7.1875 1.578125 -9.445312 1.578125 -12.09375 C 1.578125 -14.09375 1.882812 -15.867188 2.5 -17.421875 C 3.125 -18.984375 4 -20.304688 5.125 -21.390625 C 6.257812 -22.472656 7.601562 -23.296875 9.15625 -23.859375 C 10.707031 -24.429688 12.414062 -24.71875 14.28125 -24.71875 C 16 -24.71875 17.582031 -24.472656 19.03125 -23.984375 C 20.476562 -23.492188 21.742188 -22.75 22.828125 -21.75 C 23.910156 -20.757812 24.753906 -19.488281 25.359375 -17.9375 C 25.960938 -16.394531 26.265625 -14.566406 26.265625 -12.453125 Z M 14.328125 -19.90625 C 12.710938 -19.90625 11.382812 -19.5 10.34375 -18.6875 C 9.300781 -17.875 8.644531 -16.578125 8.375 -14.796875 L 19.609375 -14.796875 C 19.492188 -16.492188 18.945312 -17.769531 17.96875 -18.625 C 16.988281 -19.476562 15.773438 -19.90625 14.328125 -19.90625 Z M 14.328125 -19.90625 "/></g></g></g><g fill="#ffffff" fill-opacity="1"><g transform="translate(27.339542, 48.884085)"><g><path d="M 0.1875 0 L 10.125 -12.125 L 0.1875 -24.203125 L 8.65625 -24.203125 L 14.21875 -16.5625 L 19.8125 -24.203125 L 28.21875 -24.203125 L 18.265625 -12.09375 L 28.21875 0 L 19.8125 0 L 14.265625 -7.578125 L 8.6875 0 Z M 0.1875 0 "/></g></g></g><g fill="#ffffff" fill-opacity="1"><g transform="translate(54.705705, 48.884085)"><g><path d="M 17.703125 -24.671875 C 19.296875 -24.671875 20.796875 -24.382812 22.203125 -23.8125 C 23.609375 -23.25 24.84375 -22.421875 25.90625 -21.328125 C 26.976562 -20.242188 27.816406 -18.921875 28.421875 -17.359375 C 29.035156 -15.796875 29.34375 -14.023438 29.34375 -12.046875 C 29.34375 -10.066406 29.035156 -8.296875 28.421875 -6.734375 C 27.816406 -5.179688 26.976562 -3.859375 25.90625 -2.765625 C 24.84375 -1.671875 23.609375 -0.84375 22.203125 -0.28125 C 20.796875 0.28125 19.296875 0.5625 17.703125 0.5625 C 16.128906 0.5625 14.679688 0.265625 13.359375 -0.328125 C 12.035156 -0.921875 11.007812 -1.769531 10.28125 -2.875 L 10.28125 11.859375 L 3.5 11.859375 L 3.5 -24.203125 L 9.9375 -24.203125 L 10.125 -20.953125 C 10.800781 -22.160156 11.820312 -23.082031 13.1875 -23.71875 C 14.550781 -24.351562 16.054688 -24.671875 17.703125 -24.671875 Z M 16.171875 -5.0625 C 17.359375 -5.0625 18.4375 -5.335938 19.40625 -5.890625 C 20.375 -6.453125 21.144531 -7.253906 21.71875 -8.296875 C 22.289062 -9.335938 22.578125 -10.585938 22.578125 -12.046875 C 22.578125 -13.523438 22.289062 -14.78125 21.71875 -15.8125 C 21.144531 -16.851562 20.375 -17.648438 19.40625 -18.203125 C 18.4375 -18.765625 17.359375 -19.046875 16.171875 -19.046875 C 14.960938 -19.046875 13.867188 -18.757812 12.890625 -18.1875 C 11.921875 -17.613281 11.148438 -16.800781 10.578125 -15.75 C 10.003906 -14.695312 9.71875 -13.460938 9.71875 -12.046875 C 9.71875 -10.640625 10.003906 -9.410156 10.578125 -8.359375 C 11.148438 -7.316406 11.921875 -6.503906 12.890625 -5.921875 C 13.867188 -5.347656 14.960938 -5.0625 16.171875 -5.0625 Z M 16.171875 -5.0625 "/></g></g></g><g fill="#ffffff" fill-opacity="1"><g transform="translate(84.589804, 48.884085)"><g><path d="M 26.265625 -12.453125 L 26.203125 -10.828125 L 8.265625 -10.828125 C 8.359375 -9.492188 8.691406 -8.382812 9.265625 -7.5 C 9.835938 -6.613281 10.578125 -5.953125 11.484375 -5.515625 C 12.390625 -5.085938 13.378906 -4.875 14.453125 -4.875 C 15.660156 -4.875 16.71875 -5.148438 17.625 -5.703125 C 18.539062 -6.265625 19.222656 -7.078125 19.671875 -8.140625 L 25.890625 -7.21875 C 25.359375 -5.59375 24.539062 -4.207031 23.4375 -3.0625 C 22.34375 -1.914062 21.035156 -1.039062 19.515625 -0.4375 C 17.992188 0.164062 16.320312 0.46875 14.5 0.46875 C 11.894531 0.46875 9.625 -0.0234375 7.6875 -1.015625 C 5.75 -2.003906 4.242188 -3.4375 3.171875 -5.3125 C 2.109375 -7.1875 1.578125 -9.445312 1.578125 -12.09375 C 1.578125 -14.09375 1.882812 -15.867188 2.5 -17.421875 C 3.125 -18.984375 4 -20.304688 5.125 -21.390625 C 6.257812 -22.472656 7.601562 -23.296875 9.15625 -23.859375 C 10.707031 -24.429688 12.414062 -24.71875 14.28125 -24.71875 C 16 -24.71875 17.582031 -24.472656 19.03125 -23.984375 C 20.476562 -23.492188 21.742188 -22.75 22.828125 -21.75 C 23.910156 -20.757812 24.753906 -19.488281 25.359375 -17.9375 C 25.960938 -16.394531 26.265625 -14.566406 26.265625 -12.453125 Z M 14.328125 -19.90625 C 12.710938 -19.90625 11.382812 -19.5 10.34375 -18.6875 C 9.300781 -17.875 8.644531 -16.578125 8.375 -14.796875 L 19.609375 -14.796875 C 19.492188 -16.492188 18.945312 -17.769531 17.96875 -18.625 C 16.988281 -19.476562 15.773438 -19.90625 14.328125 -19.90625 Z M 14.328125 -19.90625 "/></g></g></g><g fill="#ffffff" fill-opacity="1"><g transform="translate(111.438262, 48.884085)"><g><path d="M 17.796875 -24.671875 C 20.691406 -24.671875 22.914062 -23.941406 24.46875 -22.484375 C 26.03125 -21.035156 26.8125 -18.96875 26.8125 -16.28125 L 26.8125 0 L 20 0 L 20 -14.828125 C 20 -15.910156 19.800781 -16.769531 19.40625 -17.40625 C 19.007812 -18.050781 18.484375 -18.515625 17.828125 -18.796875 C 17.179688 -19.085938 16.460938 -19.234375 15.671875 -19.234375 C 14.742188 -19.234375 13.875 -19.050781 13.0625 -18.6875 C 12.25 -18.320312 11.585938 -17.710938 11.078125 -16.859375 C 10.566406 -16.003906 10.300781 -14.832031 10.28125 -13.34375 L 10.28125 0 L 3.5 0 L 3.5 -24.203125 L 10.28125 -24.203125 L 10.28125 -21.515625 C 11.132812 -22.515625 12.195312 -23.289062 13.46875 -23.84375 C 14.75 -24.394531 16.191406 -24.671875 17.796875 -24.671875 Z M 17.796875 -24.671875 "/></g></g></g><g fill="#ffffff" fill-opacity="1"><g transform="translate(140.239887, 48.884085)"><g><path d="M 12.03125 0.46875 C 10.226562 0.46875 8.582031 0.226562 7.09375 -0.25 C 5.613281 -0.738281 4.382812 -1.484375 3.40625 -2.484375 C 2.4375 -3.484375 1.800781 -4.742188 1.5 -6.265625 L 7.171875 -7.859375 C 7.535156 -6.578125 8.148438 -5.65625 9.015625 -5.09375 C 9.878906 -4.539062 10.882812 -4.265625 12.03125 -4.265625 C 12.59375 -4.265625 13.132812 -4.332031 13.65625 -4.46875 C 14.1875 -4.613281 14.625 -4.863281 14.96875 -5.21875 C 15.3125 -5.570312 15.476562 -6.0625 15.46875 -6.6875 C 15.46875 -7.3125 15.242188 -7.816406 14.796875 -8.203125 C 14.359375 -8.585938 13.773438 -8.910156 13.046875 -9.171875 C 12.316406 -9.429688 11.492188 -9.675781 10.578125 -9.90625 C 9.671875 -10.144531 8.742188 -10.4375 7.796875 -10.78125 C 7.066406 -11.03125 6.363281 -11.328125 5.6875 -11.671875 C 5.019531 -12.015625 4.414062 -12.4375 3.875 -12.9375 C 3.332031 -13.445312 2.90625 -14.066406 2.59375 -14.796875 C 2.28125 -15.523438 2.125 -16.398438 2.125 -17.421875 C 2.125 -19.078125 2.535156 -20.4375 3.359375 -21.5 C 4.191406 -22.570312 5.328125 -23.367188 6.765625 -23.890625 C 8.203125 -24.410156 9.816406 -24.671875 11.609375 -24.671875 C 12.785156 -24.671875 13.925781 -24.550781 15.03125 -24.3125 C 16.132812 -24.070312 17.144531 -23.695312 18.0625 -23.1875 C 18.976562 -22.6875 19.753906 -22.03125 20.390625 -21.21875 C 21.023438 -20.40625 21.460938 -19.421875 21.703125 -18.265625 L 15.9375 -17.09375 C 15.570312 -18.21875 15.007812 -19.003906 14.25 -19.453125 C 13.488281 -19.910156 12.613281 -20.140625 11.625 -20.140625 C 11.03125 -20.140625 10.476562 -20.066406 9.96875 -19.921875 C 9.46875 -19.773438 9.066406 -19.546875 8.765625 -19.234375 C 8.460938 -18.921875 8.3125 -18.507812 8.3125 -18 C 8.3125 -17.53125 8.472656 -17.140625 8.796875 -16.828125 C 9.117188 -16.515625 9.550781 -16.25 10.09375 -16.03125 C 10.644531 -15.820312 11.269531 -15.628906 11.96875 -15.453125 C 12.664062 -15.285156 13.390625 -15.101562 14.140625 -14.90625 C 15.085938 -14.644531 16.019531 -14.332031 16.9375 -13.96875 C 17.863281 -13.601562 18.707031 -13.128906 19.46875 -12.546875 C 20.238281 -11.960938 20.847656 -11.226562 21.296875 -10.34375 C 21.753906 -9.46875 21.984375 -8.378906 21.984375 -7.078125 C 21.984375 -5.703125 21.710938 -4.53125 21.171875 -3.5625 C 20.628906 -2.601562 19.890625 -1.820312 18.953125 -1.21875 C 18.023438 -0.625 16.960938 -0.195312 15.765625 0.0625 C 14.578125 0.332031 13.332031 0.46875 12.03125 0.46875 Z M 12.03125 0.46875 "/></g></g></g><g fill="#ffffff" fill-opacity="1"><g transform="translate(162.899639, 48.884085)"><g><path d="M 26.265625 -12.453125 L 26.203125 -10.828125 L 8.265625 -10.828125 C 8.359375 -9.492188 8.691406 -8.382812 9.265625 -7.5 C 9.835938 -6.613281 10.578125 -5.953125 11.484375 -5.515625 C 12.390625 -5.085938 13.378906 -4.875 14.453125 -4.875 C 15.660156 -4.875 16.71875 -5.148438 17.625 -5.703125 C 18.539062 -6.265625 19.222656 -7.078125 19.671875 -8.140625 L 25.890625 -7.21875 C 25.359375 -5.59375 24.539062 -4.207031 23.4375 -3.0625 C 22.34375 -1.914062 21.035156 -1.039062 19.515625 -0.4375 C 17.992188 0.164062 16.320312 0.46875 14.5 0.46875 C 11.894531 0.46875 9.625 -0.0234375 7.6875 -1.015625 C 5.75 -2.003906 4.242188 -3.4375 3.171875 -5.3125 C 2.109375 -7.1875 1.578125 -9.445312 1.578125 -12.09375 C 1.578125 -14.09375 1.882812 -15.867188 2.5 -17.421875 C 3.125 -18.984375 4 -20.304688 5.125 -21.390625 C 6.257812 -22.472656 7.601562 -23.296875 9.15625 -23.859375 C 10.707031 -24.429688 12.414062 -24.71875 14.28125 -24.71875 C 16 -24.71875 17.582031 -24.472656 19.03125 -23.984375 C 20.476562 -23.492188 21.742188 -22.75 22.828125 -21.75 C 23.910156 -20.757812 24.753906 -19.488281 25.359375 -17.9375 C 25.960938 -16.394531 26.265625 -14.566406 26.265625 -12.453125 Z M 14.328125 -19.90625 C 12.710938 -19.90625 11.382812 -19.5 10.34375 -18.6875 C 9.300781 -17.875 8.644531 -16.578125 8.375 -14.796875 L 19.609375 -14.796875 C 19.492188 -16.492188 18.945312 -17.769531 17.96875 -18.625 C 16.988281 -19.476562 15.773438 -19.90625 14.328125 -19.90625 Z M 14.328125 -19.90625 "/></g></g></g></g></g></svg>