<svg xmlns="http://www.w3.org/2000/svg" xmlns:xlink="http://www.w3.org/1999/xlink" width="1366" zoomAndPan="magnify" viewBox="0 0 1024.5 576" height="768" preserveAspectRatio="xMidYMid meet" version="1.0"><defs><g/><clipPath id="b55beb6d62"><path d="M 129 256 L 196 256 L 196 324 L 129 324 Z M 129 256 " clip-rule="nonzero"/></clipPath><clipPath id="746f7f33b4"><path d="M 115.96875 266.378906 L 163.359375 223.785156 L 227 294.59375 L 179.609375 337.1875 Z M 115.96875 266.378906 " clip-rule="nonzero"/></clipPath><clipPath id="e9f028826a"><path d="M 115.96875 266.378906 L 163.359375 223.785156 L 227 294.59375 L 179.609375 337.1875 Z M 115.96875 266.378906 " clip-rule="nonzero"/></clipPath><clipPath id="c7a83cb7ba"><path d="M 158 231 L 225 231 L 225 300 L 158 300 Z M 158 231 " clip-rule="nonzero"/></clipPath><clipPath id="7474f6e6cd"><path d="M 144.726562 241.886719 L 192.117188 199.292969 L 255.757812 270.101562 L 208.367188 312.695312 Z M 144.726562 241.886719 " clip-rule="nonzero"/></clipPath><clipPath id="4fcab5b86c"><path d="M 144.726562 241.886719 L 192.117188 199.292969 L 255.757812 270.101562 L 208.367188 312.695312 Z M 144.726562 241.886719 " clip-rule="nonzero"/></clipPath><clipPath id="db607d3893"><path d="M 185 208 L 252 208 L 252 276 L 185 276 Z M 185 208 " clip-rule="nonzero"/></clipPath><clipPath id="a259d9aa5f"><path d="M 171.570312 218.328125 L 218.960938 175.734375 L 282.601562 246.542969 L 235.210938 289.136719 Z M 171.570312 218.328125 " clip-rule="nonzero"/></clipPath><clipPath id="5a3c3830de"><path d="M 171.570312 218.328125 L 218.960938 175.734375 L 282.601562 246.542969 L 235.210938 289.136719 Z M 171.570312 218.328125 " clip-rule="nonzero"/></clipPath></defs><g clip-path="url(#b55beb6d62)"><g clip-path="url(#746f7f33b4)"><g clip-path="url(#e9f028826a)"><path fill="#ff5757" d="M 195.746094 259.71875 L 138.808594 256.390625 C 127.8125 255.75 125.65625 277.160156 138.691406 277.695312 L 174.125 279.148438 L 170.921875 314.78125 C 169.945312 325.632812 191.113281 327.074219 191.871094 316.042969 Z M 195.746094 259.71875 " fill-opacity="1" fill-rule="nonzero"/></g></g></g><g fill="#d9d9d9" fill-opacity="1"><g transform="translate(287.889062, 294.343383)"><g><path d="M 78.5 -16.140625 C 80.757812 -13.648438 81.804688 -11.15625 81.640625 -8.65625 C 81.472656 -6.164062 80.535156 -4.097656 78.828125 -2.453125 C 77.128906 -0.816406 75.09375 0 72.71875 0 C 70.113281 0 67.566406 -1.242188 65.078125 -3.734375 L 40.78125 -30.078125 L 16.65625 -4.078125 C 14.050781 -1.359375 11.21875 0 8.15625 0 C 5.882812 0 3.898438 -0.765625 2.203125 -2.296875 C 0.503906 -3.828125 -0.394531 -5.75 -0.5 -8.0625 C -0.613281 -10.382812 0.457031 -12.796875 2.71875 -15.296875 L 28.890625 -43.5 L 3.390625 -71.015625 C 1.128906 -73.515625 0.0546875 -75.953125 0.171875 -78.328125 C 0.285156 -80.703125 1.21875 -82.65625 2.96875 -84.1875 C 4.726562 -85.71875 6.796875 -86.484375 9.171875 -86.484375 C 10.648438 -86.484375 12.148438 -86.140625 13.671875 -85.453125 C 15.203125 -84.773438 16.707031 -83.644531 18.1875 -82.0625 L 41.125 -57.421875 L 64.390625 -82.40625 C 65.753906 -83.875 67.171875 -84.921875 68.640625 -85.546875 C 70.109375 -86.171875 71.523438 -86.484375 72.890625 -86.484375 C 75.265625 -86.484375 77.300781 -85.742188 79 -84.265625 C 80.707031 -82.796875 81.613281 -80.898438 81.71875 -78.578125 C 81.832031 -76.253906 80.703125 -73.789062 78.328125 -71.1875 L 52.84375 -43.828125 Z M 78.5 -16.140625 "/></g></g></g><g fill="#d9d9d9" fill-opacity="1"><g transform="translate(369.784999, 294.343383)"><g><path d="M 51.984375 -88.1875 C 60.367188 -88.1875 67.703125 -86.34375 73.984375 -82.65625 C 80.273438 -78.976562 85.144531 -73.828125 88.59375 -67.203125 C 92.050781 -60.578125 93.78125 -52.898438 93.78125 -44.171875 C 93.78125 -35.109375 92.050781 -27.125 88.59375 -20.21875 C 85.144531 -13.3125 80.363281 -7.929688 74.25 -4.078125 C 68.132812 -0.222656 60.941406 1.703125 52.671875 1.703125 C 48.816406 1.703125 44.625 1.023438 40.09375 -0.328125 C 35.5625 -1.691406 31.425781 -3.617188 27.6875 -6.109375 L 27.6875 19.875 C 27.6875 22.707031 26.695312 24.859375 24.71875 26.328125 C 22.738281 27.804688 20.5625 28.546875 18.1875 28.546875 C 15.6875 28.546875 13.445312 27.804688 11.46875 26.328125 C 9.488281 24.859375 8.5 22.707031 8.5 19.875 L 8.5 -77.8125 C 8.5 -80.53125 9.375 -82.65625 11.125 -84.1875 C 12.882812 -85.71875 15.289062 -86.484375 18.34375 -86.484375 C 23.445312 -86.484375 26.453125 -84.5 27.359375 -80.53125 C 31.316406 -83.363281 35.445312 -85.347656 39.75 -86.484375 C 44.0625 -87.617188 48.140625 -88.1875 51.984375 -88.1875 Z M 52.15625 -15.46875 C 58.84375 -15.46875 64.222656 -18.097656 68.296875 -23.359375 C 72.378906 -28.628906 74.421875 -35.507812 74.421875 -44 C 74.421875 -52.039062 72.238281 -58.550781 67.875 -63.53125 C 63.519531 -68.519531 57.769531 -71.015625 50.625 -71.015625 C 46.09375 -71.015625 41.675781 -69.851562 37.375 -67.53125 C 33.070312 -65.207031 29.84375 -61.894531 27.6875 -57.59375 L 27.6875 -29.390625 C 29.5 -24.972656 32.726562 -21.546875 37.375 -19.109375 C 42.019531 -16.679688 46.945312 -15.46875 52.15625 -15.46875 Z M 52.15625 -15.46875 "/></g></g></g><g fill="#d9d9d9" fill-opacity="1"><g transform="translate(468.671857, 294.343383)"><g><path d="M 48.59375 -15.125 C 51.875 -15.125 55.097656 -15.578125 58.265625 -16.484375 C 61.441406 -17.390625 64.390625 -18.914062 67.109375 -21.0625 C 69.710938 -23.445312 72.257812 -24.550781 74.75 -24.375 C 77.25 -24.207031 79.316406 -23.300781 80.953125 -21.65625 C 82.597656 -20.019531 83.421875 -17.984375 83.421875 -15.546875 C 83.421875 -13.109375 82.234375 -10.757812 79.859375 -8.5 C 75.890625 -4.644531 71.1875 -1.953125 65.75 -0.421875 C 60.3125 1.109375 54.765625 1.816406 49.109375 1.703125 C 40.265625 1.703125 32.472656 -0.109375 25.734375 -3.734375 C 18.992188 -7.359375 13.726562 -12.398438 9.9375 -18.859375 C 6.144531 -25.316406 4.25 -32.789062 4.25 -41.28125 C 4.25 -50.570312 6.0625 -58.726562 9.6875 -65.75 C 13.3125 -72.769531 18.4375 -78.265625 25.0625 -82.234375 C 31.6875 -86.203125 39.53125 -88.1875 48.59375 -88.1875 C 57.65625 -88.1875 65.359375 -86.34375 71.703125 -82.65625 C 78.046875 -78.976562 82.882812 -73.828125 86.21875 -67.203125 C 89.5625 -60.578125 91.234375 -52.84375 91.234375 -44 C 91.234375 -41.175781 90.664062 -38.769531 89.53125 -36.78125 C 88.40625 -34.800781 85.40625 -33.8125 80.53125 -33.8125 L 23.953125 -33.8125 C 25.535156 -28.257812 28.535156 -23.753906 32.953125 -20.296875 C 37.378906 -16.847656 42.59375 -15.125 48.59375 -15.125 Z M 48.765625 -71.359375 C 42.191406 -71.359375 36.695312 -69.289062 32.28125 -65.15625 C 27.863281 -61.019531 25.03125 -55.613281 23.78125 -48.9375 L 73.234375 -48.9375 C 72.660156 -55.613281 70.445312 -61.019531 66.59375 -65.15625 C 62.75 -69.289062 56.804688 -71.359375 48.765625 -71.359375 Z M 48.765625 -71.359375 "/></g></g></g><g fill="#d9d9d9" fill-opacity="1"><g transform="translate(567.388797, 294.343383)"><g><path d="M 57.265625 -88.1875 C 65.191406 -88.1875 71.925781 -86.457031 77.46875 -83 C 83.019531 -79.539062 87.269531 -74.753906 90.21875 -68.640625 C 93.164062 -62.523438 94.640625 -55.390625 94.640625 -47.234375 L 94.640625 -8.828125 C 94.640625 -6.222656 93.789062 -4.097656 92.09375 -2.453125 C 90.394531 -0.816406 88.015625 0 84.953125 0 C 82.117188 0 79.796875 -0.816406 77.984375 -2.453125 C 76.171875 -4.097656 75.265625 -6.222656 75.265625 -8.828125 L 75.265625 -47.578125 C 75.265625 -54.597656 73.59375 -60.285156 70.25 -64.640625 C 66.914062 -69.003906 61.625 -71.1875 54.375 -71.1875 C 52.21875 -71.1875 49.640625 -70.59375 46.640625 -69.40625 C 43.640625 -68.21875 40.691406 -66.429688 37.796875 -64.046875 C 34.910156 -61.671875 32.53125 -58.671875 30.65625 -55.046875 C 28.789062 -51.421875 27.859375 -47.117188 27.859375 -42.140625 L 27.859375 -8.671875 C 27.859375 -2.890625 24.742188 0 18.515625 0 C 15.578125 0 13.171875 -0.765625 11.296875 -2.296875 C 9.429688 -3.828125 8.5 -5.953125 8.5 -8.671875 L 8.5 -77.8125 C 8.5 -80.644531 9.488281 -82.796875 11.46875 -84.265625 C 13.445312 -85.742188 15.6875 -86.484375 18.1875 -86.484375 C 20.5625 -86.484375 22.765625 -85.742188 24.796875 -84.265625 C 26.835938 -82.796875 27.859375 -80.757812 27.859375 -78.15625 L 27.859375 -76.96875 C 32.734375 -81.5 37.773438 -84.5 42.984375 -85.96875 C 48.191406 -87.445312 52.953125 -88.1875 57.265625 -88.1875 Z M 57.265625 -88.1875 "/></g></g></g><g fill="#d9d9d9" fill-opacity="1"><g transform="translate(670.523403, 294.343383)"><g><path d="M 2.203125 -20.21875 C 1.410156 -23.382812 2.144531 -25.929688 4.40625 -27.859375 C 6.675781 -29.785156 9.171875 -30.75 11.890625 -30.75 C 13.929688 -30.75 15.742188 -30.15625 17.328125 -28.96875 C 18.910156 -27.78125 20.101562 -25.992188 20.90625 -23.609375 C 21.582031 -21.578125 23.050781 -19.910156 25.3125 -18.609375 C 27.582031 -17.304688 30.21875 -16.367188 33.21875 -15.796875 C 36.21875 -15.234375 39.25 -14.953125 42.3125 -14.953125 C 48.425781 -14.953125 53.351562 -16.054688 57.09375 -18.265625 C 60.832031 -20.472656 62.703125 -23.273438 62.703125 -26.671875 C 62.703125 -29.054688 61.707031 -30.8125 59.71875 -31.9375 C 57.738281 -33.070312 55.132812 -33.863281 51.90625 -34.3125 C 48.675781 -34.769531 45.25 -35.113281 41.625 -35.34375 C 36.863281 -35.789062 32.191406 -36.351562 27.609375 -37.03125 C 23.023438 -37.71875 18.863281 -38.878906 15.125 -40.515625 C 11.382812 -42.160156 8.378906 -44.597656 6.109375 -47.828125 C 3.847656 -51.054688 2.71875 -55.445312 2.71875 -61 C 2.71875 -66.4375 4.300781 -71.191406 7.46875 -75.265625 C 10.644531 -79.347656 15.117188 -82.519531 20.890625 -84.78125 C 26.671875 -87.050781 33.359375 -88.1875 40.953125 -88.1875 C 45.367188 -88.1875 50.125 -87.757812 55.21875 -86.90625 C 60.3125 -86.050781 65.039062 -84.320312 69.40625 -81.71875 C 73.769531 -79.113281 76.96875 -75.09375 79 -69.65625 C 79.800781 -67.394531 79.75 -65.382812 78.84375 -63.625 C 77.9375 -61.875 76.601562 -60.546875 74.84375 -59.640625 C 73.082031 -58.734375 71.296875 -58.28125 69.484375 -58.28125 C 67.453125 -58.28125 65.785156 -58.675781 64.484375 -59.46875 C 63.179688 -60.257812 62.078125 -61.617188 61.171875 -63.546875 C 60.148438 -65.921875 58.421875 -67.675781 55.984375 -68.8125 C 53.546875 -69.945312 50.9375 -70.65625 48.15625 -70.9375 C 45.382812 -71.21875 42.984375 -71.359375 40.953125 -71.359375 C 35.285156 -71.359375 30.722656 -70.394531 27.265625 -68.46875 C 23.816406 -66.539062 22.09375 -63.992188 22.09375 -60.828125 C 22.09375 -58.109375 23 -56.265625 24.8125 -55.296875 C 26.625 -54.335938 29.085938 -53.769531 32.203125 -53.59375 C 35.316406 -53.425781 38.796875 -53.117188 42.640625 -52.671875 C 47.398438 -52.109375 52.101562 -51.484375 56.75 -50.796875 C 61.394531 -50.117188 65.640625 -48.957031 69.484375 -47.3125 C 73.335938 -45.675781 76.394531 -43.242188 78.65625 -40.015625 C 80.925781 -36.785156 82.0625 -32.335938 82.0625 -26.671875 C 82.0625 -21.117188 80.390625 -16.191406 77.046875 -11.890625 C 73.710938 -7.585938 69.070312 -4.242188 63.125 -1.859375 C 57.175781 0.515625 50.238281 1.703125 42.3125 1.703125 C 38.800781 1.703125 34.976562 1.445312 30.84375 0.9375 C 26.707031 0.425781 22.679688 -0.59375 18.765625 -2.125 C 14.859375 -3.65625 11.429688 -5.863281 8.484375 -8.75 C 5.546875 -11.632812 3.453125 -15.457031 2.203125 -20.21875 Z M 2.203125 -20.21875 "/></g></g></g><g fill="#d9d9d9" fill-opacity="1"><g transform="translate(754.967989, 294.343383)"><g><path d="M 48.59375 -15.125 C 51.875 -15.125 55.097656 -15.578125 58.265625 -16.484375 C 61.441406 -17.390625 64.390625 -18.914062 67.109375 -21.0625 C 69.710938 -23.445312 72.257812 -24.550781 74.75 -24.375 C 77.25 -24.207031 79.316406 -23.300781 80.953125 -21.65625 C 82.597656 -20.019531 83.421875 -17.984375 83.421875 -15.546875 C 83.421875 -13.109375 82.234375 -10.757812 79.859375 -8.5 C 75.890625 -4.644531 71.1875 -1.953125 65.75 -0.421875 C 60.3125 1.109375 54.765625 1.816406 49.109375 1.703125 C 40.265625 1.703125 32.472656 -0.109375 25.734375 -3.734375 C 18.992188 -7.359375 13.726562 -12.398438 9.9375 -18.859375 C 6.144531 -25.316406 4.25 -32.789062 4.25 -41.28125 C 4.25 -50.570312 6.0625 -58.726562 9.6875 -65.75 C 13.3125 -72.769531 18.4375 -78.265625 25.0625 -82.234375 C 31.6875 -86.203125 39.53125 -88.1875 48.59375 -88.1875 C 57.65625 -88.1875 65.359375 -86.34375 71.703125 -82.65625 C 78.046875 -78.976562 82.882812 -73.828125 86.21875 -67.203125 C 89.5625 -60.578125 91.234375 -52.84375 91.234375 -44 C 91.234375 -41.175781 90.664062 -38.769531 89.53125 -36.78125 C 88.40625 -34.800781 85.40625 -33.8125 80.53125 -33.8125 L 23.953125 -33.8125 C 25.535156 -28.257812 28.535156 -23.753906 32.953125 -20.296875 C 37.378906 -16.847656 42.59375 -15.125 48.59375 -15.125 Z M 48.765625 -71.359375 C 42.191406 -71.359375 36.695312 -69.289062 32.28125 -65.15625 C 27.863281 -61.019531 25.03125 -55.613281 23.78125 -48.9375 L 73.234375 -48.9375 C 72.660156 -55.613281 70.445312 -61.019531 66.59375 -65.15625 C 62.75 -69.289062 56.804688 -71.359375 48.765625 -71.359375 Z M 48.765625 -71.359375 "/></g></g></g><g clip-path="url(#c7a83cb7ba)"><g clip-path="url(#7474f6e6cd)"><g clip-path="url(#4fcab5b86c)"><path fill="#ff5757" d="M 224.503906 235.222656 L 167.566406 231.898438 C 156.570312 231.257812 154.414062 252.664062 167.449219 253.199219 L 202.882812 254.652344 L 199.679688 290.285156 C 198.703125 301.136719 219.871094 302.578125 220.628906 291.546875 Z M 224.503906 235.222656 " fill-opacity="1" fill-rule="nonzero"/></g></g></g><g clip-path="url(#db607d3893)"><g clip-path="url(#a259d9aa5f)"><g clip-path="url(#5a3c3830de)"><path fill="#ff5757" d="M 251.347656 211.664062 L 194.414062 208.339844 C 183.417969 207.699219 181.261719 229.105469 194.292969 229.640625 L 229.730469 231.097656 L 226.523438 266.726562 C 225.550781 277.578125 246.71875 279.019531 247.476562 267.988281 Z M 251.347656 211.664062 " fill-opacity="1" fill-rule="nonzero"/></g></g></g></svg>